<svg width="27" height="27" viewBox="0 0 27 27" fill="none" xmlns="http://www.w3.org/2000/svg">
<path d="M1.39567 0.101858C1.23424 0.0211204 1.0534 -0.0126921 0.873707 0.00426646C0.694015 0.021225 0.522689 0.0882738 0.379218 0.197786C0.235748 0.307298 0.125891 0.454877 0.0621452 0.623736C-0.0016005 0.792594 -0.0166765 0.975954 0.0186323 1.15296L2.72449 10.5068C2.77494 10.6811 2.87356 10.8376 3.009 10.9584C3.14445 11.0792 3.31122 11.1593 3.49015 11.1895L14.464 13.0275C14.9809 13.1297 14.9809 13.8703 14.464 13.9725L3.49015 15.8105C3.31122 15.8407 3.14445 15.9208 3.009 16.0416C2.87356 16.1624 2.77494 16.3189 2.72449 16.4932L0.0186323 25.847C-0.0166765 26.024 -0.0016005 26.2074 0.0621452 26.3763C0.125891 26.5451 0.235748 26.6927 0.379218 26.8022C0.522689 26.9117 0.694015 26.9788 0.873707 26.9957C1.0534 27.0127 1.23424 26.9789 1.39567 26.8981L26.4678 14.3621C26.6277 14.2819 26.7622 14.1588 26.8562 14.0066C26.9502 13.8543 27 13.6789 27 13.5C27 13.3211 26.9502 13.1457 26.8562 12.9934C26.7622 12.8412 26.6277 12.7181 26.4678 12.6379L1.39567 0.101858V0.101858Z" fill="black"/>
</svg>
